<svg xmlns="http://www.w3.org/2000/svg" viewBox="0 0 120 120" role="img" aria-label="Organizacion">
  <defs>
    <linearGradient id="orgTower" x1="20" y1="14" x2="96" y2="108" gradientUnits="userSpaceOnUse">
      <stop offset="0" stop-color="#22d3ee"/>
      <stop offset="0.48" stop-color="#8b5cf6"/>
      <stop offset="1" stop-color="#ec4899"/>
    </linearGradient>
    <linearGradient id="orgNode" x1="0" y1="0" x2="1" y2="1">
      <stop offset="0" stop-color="#fef3c7"/>
      <stop offset="1" stop-color="#f59e0b"/>
    </linearGradient>
  </defs>
  <rect x="18" y="24" width="54" height="76" rx="10" fill="#172033"/>
  <rect x="28" y="34" width="12" height="12" rx="3" fill="#67e8f9"/>
  <rect x="50" y="34" width="12" height="12" rx="3" fill="#c4b5fd"/>
  <rect x="28" y="56" width="12" height="12" rx="3" fill="#c4b5fd"/>
  <rect x="50" y="56" width="12" height="12" rx="3" fill="#67e8f9"/>
  <rect x="28" y="78" width="34" height="10" rx="4" fill="#334155"/>
  <path d="M72 45h16a12 12 0 0 1 12 12v18" fill="none" stroke="url(#orgTower)" stroke-width="7" stroke-linecap="round"/>
  <path d="M72 78h16" fill="none" stroke="#22d3ee" stroke-width="7" stroke-linecap="round"/>
  <circle cx="88" cy="78" r="14" fill="url(#orgNode)"/>
  <path d="M83 78h10M88 73v10" stroke="#172033" stroke-width="4" stroke-linecap="round"/>
  <path d="M18 100h84" stroke="#0f172a" stroke-width="8" stroke-linecap="round"/>
  <path d="M18 24h54v76H18z" fill="url(#orgTower)" opacity=".28"/>
</svg>
