<svg xmlns="http://www.w3.org/2000/svg" viewBox="0 0 64 64" fill="none" role="img" aria-label="Servicio">
  <defs>
    <linearGradient id="svc-towel" x1="12" y1="18" x2="38" y2="48" gradientUnits="userSpaceOnUse">
      <stop stop-color="#7c3aed"/>
      <stop offset="1" stop-color="#5b21b6"/>
    </linearGradient>
    <linearGradient id="svc-brush" x1="34" y1="14" x2="52" y2="54" gradientUnits="userSpaceOnUse">
      <stop stop-color="#ddd6fe"/>
      <stop offset="1" stop-color="#a78bfa"/>
    </linearGradient>
    <linearGradient id="svc-bristle" x1="38" y1="34" x2="54" y2="50" gradientUnits="userSpaceOnUse">
      <stop stop-color="#c4b5fd"/>
      <stop offset="1" stop-color="#8b5cf6"/>
    </linearGradient>
  </defs>
  <ellipse cx="24" cy="44" rx="16" ry="5" fill="#4c1d95" fill-opacity="0.35"/>
  <path d="M10 28C10 22 16 18 24 18C32 18 38 22 38 28C38 36 30 46 24 50C18 46 10 36 10 28Z" fill="url(#svc-towel)"/>
  <path d="M10 28C10 22 16 18 24 18C28 18 32 20 34 24C30 22 26 22 22 24C16 28 12 34 10 28Z" fill="#a78bfa" fill-opacity="0.22"/>
  <rect x="36" y="16" width="5" height="28" rx="2.5" fill="url(#svc-brush)"/>
  <rect x="34" y="12" width="9" height="6" rx="2" fill="#c4b5fd" fill-opacity="0.75"/>
  <path d="M35 40C35 36 39 34 44 34C49 34 53 36 53 40C53 44 49 48 44 48C39 48 35 44 35 40Z" fill="url(#svc-bristle)"/>
  <path d="M46 12L50 8L52 10L48 14L46 12Z" fill="#e9d5ff" fill-opacity="0.8"/>
  <path d="M42 10L46 6L48 8L44 12L42 10Z" fill="#ddd6fe" fill-opacity="0.55"/>
</svg>
